{
    "accessors" : [
        {
            "bufferView" : 0,
            "componentType" : 5121,
            "count" : 480,
            "max" : [
                144
            ],
            "min" : [
                0
            ],
            "type" : "SCALAR"
        },
        {
            "bufferView" : 1,
            "componentType" : 5126,
            "count" : 145,
            "max" : [
                0.30444300174713135,
                0.3024420142173767,
                0.6219339966773987
            ],
            "min" : [
                -0.31980499625205994,
                -0.32204800844192505,
                -24.8162784576416
            ],
            "type" : "VEC3"
        },
        {
            "bufferView" : 2,
            "componentType" : 5126,
            "count" : 145,
            "max" : [
                0.999969482421875,
                1.0,
                1.0
            ],
            "min" : [
                -0.999969482421875,
                -1.0,
                -1.0
            ],
            "type" : "VEC3"
        },
        {
            "bufferView" : 3,
            "componentType" : 5126,
            "count" : 145,
            "max" : [
                1.0,
                0.9999999403953552,
                9.773323108674958e-05,
                1.0
            ],
            "min" : [
                -1.0,
                -0.9999999403953552,
                -9.765548020368442e-05,
                -1.0
            ],
            "type" : "VEC4"
        },
        {
            "bufferView" : 4,
            "componentType" : 5126,
            "count" : 145,
            "max" : [
                1.0000159740447998,
                1.7953659892082214
            ],
            "min" : [
                1.5999999959603883e-05,
                -0.7953660488128662
            ],
            "type" : "VEC2"
        },
        {
            "bufferView" : 5,
            "componentType" : 5123,
            "count" : 1536,
            "max" : [
                288
            ],
            "min" : [
                0
            ],
            "type" : "SCALAR"
        },
        {
            "bufferView" : 6,
            "componentType" : 5126,
            "count" : 289,
            "max" : [
                11.43963623046875,
                0.7027590274810791,
                -10.6705322265625
            ],
            "min" : [
                0.3181459903717041,
                -2.425964117050171,
                -24.4730224609375
            ],
            "type" : "VEC3"
        },
        {
            "bufferView" : 7,
            "componentType" : 5126,
            "count" : 289,
            "max" : [
                0.999847412109375,
                0.999969482421875,
                0.3726004958152771
            ],
            "min" : [
                -0.9962767362594604,
                -0.1980040967464447,
                -0.5407879948616028
            ],
            "type" : "VEC3"
        },
        {
            "bufferView" : 8,
            "componentType" : 5126,
            "count" : 289,
            "max" : [
                0.9590618014335632,
                0.7205683588981628,
                0.7333279252052307,
                1.0
            ],
            "min" : [
                -0.17259933054447174,
                -0.9998593926429749,
                0.008056349121034145,
                1.0
            ],
            "type" : "VEC4"
        },
        {
            "bufferView" : 9,
            "componentType" : 5126,
            "count" : 289,
            "max" : [
                0.8537709712982178,
                0.7489619851112366
            ],
            "min" : [
                0.14623099565505981,
                0.20094501972198486
            ],
            "type" : "VEC2"
        },
        {
            "bufferView" : 10,
            "componentType" : 5121,
            "count" : 720,
            "max" : [
                247
            ],
            "min" : [
                0
            ],
            "type" : "SCALAR"
        },
        {
            "bufferView" : 11,
            "componentType" : 5126,
            "count" : 248,
            "max" : [
                1.2979429960250854,
                1.2940059900283813,
                1.0679930448532104
            ],
            "min" : [
                -1.3096920251846313,
                -1.3135989904403687,
                -0.7845460176467896
            ],
            "type" : "VEC3"
        },
        {
            "bufferView" : 12,
            "componentType" : 5126,
            "count" : 248,
            "max" : [
                1.0,
                1.0,
                1.0
            ],
            "min" : [
                -1.0,
                -1.0,
                -1.0
            ],
            "type" : "VEC3"
        },
        {
            "bufferView" : 13,
            "componentType" : 5126,
            "count" : 248,
            "max" : [
                1.0,
                1.0,
                0.05503658205270767,
                1.0
            ],
            "min" : [
                -1.0,
                -1.0,
                -0.05504591390490532,
                -1.0
            ],
            "type" : "VEC4"
        },
        {
            "bufferView" : 14,
            "componentType" : 5126,
            "count" : 248,
            "max" : [
                0.65625,
                1.0
            ],
            "min" : [
                0.34375,
                0.0
            ],
            "type" : "VEC2"
        }
    ],
    "asset" : {
        "generator" : "Khronos Blender glTF 2.0 exporter",
        "version" : "2.0"
    },
    "bufferViews" : [
        {
            "buffer" : 0,
            "byteLength" : 480,
            "byteOffset" : 0,
            "target" : 34963
        },
        {
            "buffer" : 0,
            "byteLength" : 1740,
            "byteOffset" : 480,
            "target" : 34962
        },
        {
            "buffer" : 0,
            "byteLength" : 1740,
            "byteOffset" : 2220,
            "target" : 34962
        },
        {
            "buffer" : 0,
            "byteLength" : 2320,
            "byteOffset" : 3960,
            "target" : 34962
        },
        {
            "buffer" : 0,
            "byteLength" : 1160,
            "byteOffset" : 6280,
            "target" : 34962
        },
        {
            "buffer" : 0,
            "byteLength" : 3072,
            "byteOffset" : 7440,
            "target" : 34963
        },
        {
            "buffer" : 0,
            "byteLength" : 3468,
            "byteOffset" : 10512,
            "target" : 34962
        },
        {
            "buffer" : 0,
            "byteLength" : 3468,
            "byteOffset" : 13980,
            "target" : 34962
        },
        {
            "buffer" : 0,
            "byteLength" : 4624,
            "byteOffset" : 17448,
            "target" : 34962
        },
        {
            "buffer" : 0,
            "byteLength" : 2312,
            "byteOffset" : 22072,
            "target" : 34962
        },
        {
            "buffer" : 0,
            "byteLength" : 720,
            "byteOffset" : 24384,
            "target" : 34963
        },
        {
            "buffer" : 0,
            "byteLength" : 2976,
            "byteOffset" : 25104,
            "target" : 34962
        },
        {
            "buffer" : 0,
            "byteLength" : 2976,
            "byteOffset" : 28080,
            "target" : 34962
        },
        {
            "buffer" : 0,
            "byteLength" : 3968,
            "byteOffset" : 31056,
            "target" : 34962
        },
        {
            "buffer" : 0,
            "byteLength" : 1984,
            "byteOffset" : 35024,
            "target" : 34962
        }
    ],
    "buffers" : [
        {
            "byteLength" : 37008,
            "uri" : "flag.bin"
        }
    ],
    "materials" : [
        {
            "name" : "lambert2SG",
            "pbrMetallicRoughness" : {
                "baseColorFactor" : [
                    0.5,
                    0.5,
                    0.5,
                    1.0
                ],
                "metallicFactor" : 0.0
            }
        }
    ],
    "meshes" : [
        {
            "name" : "pCylinder30",
            "primitives" : [
                {
                    "attributes" : {
                        "NORMAL" : 2,
                        "POSITION" : 1,
                        "TANGENT" : 3,
                        "TEXCOORD_0" : 4
                    },
                    "indices" : 0,
                    "material" : 0
                }
            ]
        },
        {
            "name" : "pPlane2",
            "primitives" : [
                {
                    "attributes" : {
                        "NORMAL" : 7,
                        "POSITION" : 6,
                        "TANGENT" : 8,
                        "TEXCOORD_0" : 9
                    },
                    "indices" : 5,
                    "material" : 0
                }
            ]
        },
        {
            "name" : "pCylinder29",
            "primitives" : [
                {
                    "attributes" : {
                        "NORMAL" : 12,
                        "POSITION" : 11,
                        "TANGENT" : 13,
                        "TEXCOORD_0" : 14
                    },
                    "indices" : 10,
                    "material" : 0
                }
            ]
        }
    ],
    "nodes" : [
        {
            "name" : "Camera",
            "rotation" : [
                0.483536034822464,
                0.33687159419059753,
                -0.20870360732078552,
                0.7804827094078064
            ],
            "translation" : [
                7.481131553649902,
                5.34366512298584,
                6.5076398849487305
            ]
        },
        {
            "name" : "Lamp",
            "rotation" : [
                0.16907575726509094,
                0.7558802962303162,
                -0.27217137813568115,
                0.570947527885437
            ],
            "scale" : [
                1.0,
                1.0,
                0.9999999403953552
            ],
            "translation" : [
                4.076245307922363,
                5.903861999511719,
                -1.0054539442062378
            ]
        },
        {
            "mesh" : 2,
            "name" : "pCylinder29",
            "rotation" : [
                0.7071068286895752,
                0.0,
                -0.0,
                0.7071068286895752
            ],
            "scale" : [
                0.06812773644924164,
                0.06812773644924164,
                0.06812773644924164
            ]
        },
        {
            "mesh" : 0,
            "name" : "pCylinder30",
            "rotation" : [
                0.7071068286895752,
                0.0,
                -0.0,
                0.7071068286895752
            ],
            "scale" : [
                0.06812773644924164,
                0.06812773644924164,
                0.06812773644924164
            ]
        },
        {
            "mesh" : 1,
            "name" : "pPlane2",
            "rotation" : [
                0.7071068286895752,
                0.0,
                -0.0,
                0.7071068286895752
            ],
            "scale" : [
                0.06812773644924164,
                0.06812773644924164,
                0.06812773644924164
            ]
        }
    ],
    "scene" : 0,
    "scenes" : [
        {
            "name" : "Scene",
            "nodes" : [
                2,
                4,
                3,
                1,
                0
            ]
        }
    ]
}
